<?xml version="1.0" encoding="UTF-8"?>
<svg id="Ebene_1" xmlns="http://www.w3.org/2000/svg" version="1.1" viewBox="0 0 832.375 298.559">
  <!-- Generator: Adobe Illustrator 29.1.0, SVG Export Plug-In . SVG Version: 2.1.0 Build 142)  -->
  <path d="M88.7,74.047l12.008-56.271c1.883-8.829,8.005-16.128,28.488-16.128h23.662c32.256,0,43.086,7.887,43.086,18.953,0,12.596-10.595,22.484-24.25,22.484h-17.658l-.353,1.766h17.658c3.649,0,21.543,1.531,18.364,17.423l-.941,4.709c-3.061,15.304-15.657,23.191-51.444,23.191h-26.958c-18.011,0-23.897-5.533-21.661-16.128ZM136.612,72.987c4.238,0,6.946-1.412,7.299-3.296l2.354-11.066c1.06-4.944.235-6.121-7.534-6.121h-4.474l-4.355,20.483h6.71ZM140.968,36.494c7.652,0,9.3-1.648,10.242-6.122l1.648-7.651c.353-1.884-1.53-3.414-6.004-3.414h-5.533l-3.649,17.188h3.296Z"/>
  <path d="M197.705,64.158l7.77-36.493c3.649-17.188,20.483-27.665,56.859-27.665s48.619,10.478,44.97,27.665l-7.77,36.493c-3.649,17.188-20.366,27.665-56.742,27.665-36.611,0-48.737-10.478-45.087-27.665ZM246.677,73.576c4.944,0,7.063-2.237,7.534-4.474l9.889-46.382c.471-2.237-.706-4.474-5.65-4.474-5.062,0-7.181,2.236-7.652,4.474l-9.889,46.382c-.471,2.236.588,4.474,5.768,4.474Z"/>
  <path d="M309.417,64.158l7.77-36.493c3.649-17.188,20.483-27.665,56.859-27.665s48.619,10.478,44.97,27.665l-7.77,36.493c-3.649,17.188-20.366,27.665-56.742,27.665-36.611,0-48.737-10.478-45.087-27.665ZM358.39,73.576c4.944,0,7.063-2.237,7.534-4.474l9.889-46.382c.471-2.237-.706-4.474-5.65-4.474-5.062,0-7.181,2.236-7.652,4.474l-9.889,46.382c-.471,2.236.588,4.474,5.768,4.474Z"/>
  <path d="M451.973,88.998c-3.179,1.53-8.241,2.942-14.48,2.942-6.003,0-10.242-1.295-13.067-2.942-6.004-3.532-5.297-8.123-4.356-12.361l13.185-61.333c.942-4.238,2.001-8.829,9.536-12.36,3.531-1.648,8.593-2.943,14.362-2.943,6.239,0,10.713,1.413,13.185,2.943,5.65,3.414,4.826,8.476,3.885,12.479l-4.356,20.013c5.062,0,9.653-1.766,15.186-12.126,5.297-9.771,8.005-16.834,18.365-20.719,4.944-1.884,9.889-2.472,15.186-2.472,9.182,0,20.837,3.296,20.837,11.301,0,9.535-7.534,7.652-16.481,18.247-9.888,11.89-21.778,13.538-35.552,13.538h-11.537l-.353,1.766h8.123c7.299,0,38.377-2.825,36.965,14.009l-.707,8.358c-.942,11.654,5.886,11.419,2.237,16.717-4.827,7.062-21.779,7.887-26.37,7.887-19.188,0-20.484-10.83-20.484-19.659v-11.419c0-4.709,0-6.71-9.417-6.71l-4.827,22.367c-.824,3.885-2.001,9.064-9.064,12.479Z"/>
  <path d="M588.641,88.998c-6.004-3.532-5.297-8.123-4.355-12.361l13.185-61.333c.942-4.238,2.001-8.829,9.536-12.36,3.531-1.648,8.593-2.943,14.362-2.943,6.239,0,10.713,1.413,13.185,2.943,5.768,3.531,4.591,8.476,3.767,12.479l-13.067,61.098c-.824,3.885-2.001,9.064-9.064,12.479-3.179,1.53-8.241,2.942-14.48,2.942-6.003,0-10.242-1.295-13.067-2.942Z"/>
  <path d="M638.08,71.811c0-10.359,10.359-17.306,25.781-17.306,14.362,0,21.189,3.297,20.013,8.947l-1.177,5.65c-.471,2.236.588,4.474,6.239,4.474,5.297,0,7.77-2.708,8.24-4.827l.589-2.472c1.648-7.063-6.122-7.888-22.367-14.833-13.067-5.65-27.665-9.183-27.665-21.896,0-18.129,20.954-29.548,54.623-29.548,32.374,0,46.5,7.888,46.5,18.836,0,10.006-11.654,15.656-24.839,15.656-14.009,0-20.012-4.826-19.071-10.359l.235-1.412c.354-2.237-.706-4.474-5.65-4.474-5.062,0-7.063,2.236-7.534,4.474l-.235,1.06c-1.53,6.71,10.595,9.3,22.72,13.891,16.599,6.239,27.312,10.124,27.312,21.896,0,20.13-21.19,32.256-56.271,32.256-34.139,0-47.442-9.889-47.442-20.013Z"/>
  <path d="M113.719,176.18c0,10.947-10.477,19.07-24.721,19.07-14.951,0-18.835-6.121-18.835-14.126v-2.002h-26.252l-.824,2.002c-3.061,7.181-9.182,14.126-25.075,14.126-12.479,0-18.011-6.004-18.011-12.831,0-5.651,4.12-11.302,9.653-21.308l15.068-27.43c10.948-19.895,17.187-28.724,33.315-28.724h29.312c13.538,0,18.365,4.237,21.308,28.724l3.296,27.43c.824,6.592,1.766,11.419,1.766,15.068ZM70.162,160.287l.118-34.375h-3.767l-14.598,34.375h18.247Z"/>
  <path d="M172.219,177.356l12.008-56.271c1.883-8.829,8.005-16.128,28.488-16.128h23.662c32.256,0,43.086,7.887,43.086,18.953,0,12.596-10.595,22.484-24.25,22.484h-17.658l-.353,1.766h17.658c3.649,0,21.543,1.531,18.364,17.423l-.941,4.709c-3.061,15.304-15.657,23.191-51.444,23.191h-26.958c-18.011,0-23.897-5.533-21.661-16.128ZM220.132,176.297c4.238,0,6.946-1.412,7.299-3.296l2.354-11.066c1.06-4.944.235-6.121-7.534-6.121h-4.474l-4.355,20.483h6.71ZM224.488,139.804c7.652,0,9.3-1.648,10.242-6.122l1.648-7.651c.353-1.884-1.53-3.414-6.004-3.414h-5.533l-3.649,17.188h3.296Z"/>
  <path d="M281.225,167.468l7.77-36.493c3.649-17.188,20.483-27.665,56.859-27.665s48.619,10.478,44.97,27.665l-7.77,36.493c-3.649,17.188-20.366,27.665-56.742,27.665-36.611,0-48.737-10.478-45.087-27.665ZM330.197,176.886c4.944,0,7.063-2.236,7.534-4.474l9.889-46.382c.471-2.237-.706-4.474-5.65-4.474-5.062,0-7.181,2.236-7.652,4.474l-9.889,46.382c-.471,2.237.588,4.474,5.768,4.474Z"/>
  <path d="M392.937,167.468l7.77-36.493c3.649-17.188,20.483-27.665,56.859-27.665s48.619,10.478,44.97,27.665l-7.77,36.493c-3.649,17.188-20.366,27.665-56.742,27.665-36.611,0-48.737-10.478-45.087-27.665ZM441.909,176.886c4.944,0,7.063-2.236,7.534-4.474l9.889-46.382c.471-2.237-.706-4.474-5.65-4.474-5.062,0-7.181,2.236-7.652,4.474l-9.889,46.382c-.471,2.237.588,4.474,5.768,4.474Z"/>
  <path d="M535.493,192.308c-3.179,1.53-8.241,2.942-14.48,2.942-6.003,0-10.242-1.295-13.067-2.942-6.004-3.532-5.297-8.123-4.356-12.361l13.185-61.333c.942-4.237,2.001-8.829,9.536-12.36,3.531-1.648,8.593-2.943,14.362-2.943,6.239,0,10.713,1.413,13.185,2.943,5.65,3.414,4.826,8.476,3.885,12.479l-4.356,20.013c5.062,0,9.653-1.767,15.186-12.126,5.297-9.771,8.005-16.834,18.365-20.719,4.944-1.884,9.889-2.472,15.186-2.472,9.182,0,20.837,3.296,20.837,11.301,0,9.535-7.534,7.652-16.481,18.247-9.888,11.89-21.778,13.538-35.552,13.538h-11.537l-.353,1.766h8.123c7.299,0,38.377-2.825,36.965,14.009l-.707,8.358c-.942,11.654,5.886,11.419,2.237,16.717-4.827,7.062-21.779,7.887-26.37,7.887-19.188,0-20.484-10.83-20.484-19.659v-11.419c0-4.709,0-6.71-9.417-6.71l-4.827,22.367c-.824,3.885-2.001,9.064-9.064,12.479Z"/>
  <path d="M672.16,192.308c-6.004-3.532-5.297-8.123-4.356-12.361l13.185-61.333c.942-4.237,2.001-8.829,9.536-12.36,3.531-1.648,8.593-2.943,14.362-2.943,6.239,0,10.713,1.413,13.185,2.943,5.768,3.531,4.591,8.476,3.767,12.479l-13.067,61.098c-.824,3.885-2.001,9.064-9.064,12.479-3.179,1.53-8.241,2.942-14.48,2.942-6.003,0-10.242-1.295-13.067-2.942Z"/>
  <path d="M721.6,175.12c0-10.359,10.359-17.306,25.781-17.306,14.362,0,21.189,3.297,20.013,8.947l-1.177,5.65c-.471,2.237.588,4.474,6.239,4.474,5.297,0,7.77-2.708,8.24-4.827l.589-2.472c1.648-7.063-6.122-7.888-22.367-14.833-13.067-5.65-27.665-9.183-27.665-21.896,0-18.129,20.954-29.548,54.623-29.548,32.374,0,46.5,7.888,46.5,18.836,0,10.006-11.654,15.656-24.839,15.656-14.009,0-20.012-4.826-19.071-10.359l.235-1.412c.354-2.237-.706-4.474-5.65-4.474-5.062,0-7.063,2.236-7.534,4.474l-.235,1.06c-1.53,6.71,10.595,9.3,22.72,13.891,16.599,6.239,27.312,10.124,27.312,21.896,0,20.13-21.19,32.256-56.271,32.256-34.139,0-47.442-9.889-47.442-20.013Z"/>
  <path d="M245.384,279.488c0,10.947-10.477,19.07-24.721,19.07-14.951,0-18.835-6.121-18.835-14.126v-2.002h-26.252l-.824,2.002c-3.061,7.181-9.182,14.126-25.075,14.126-12.479,0-18.011-6.004-18.011-12.831,0-5.651,4.12-11.302,9.653-21.308l15.068-27.43c10.948-19.895,17.187-28.724,33.315-28.724h29.312c13.538,0,18.365,4.237,21.308,28.724l3.296,27.43c.824,6.592,1.766,11.419,1.766,15.068ZM201.828,263.596l.118-34.375h-3.767l-14.598,34.375h18.247Z"/>
  <path d="M303.885,280.665l12.008-56.271c1.883-8.829,8.005-16.128,28.488-16.128h23.662c32.256,0,43.086,7.887,43.086,18.953,0,12.596-10.595,22.484-24.25,22.484h-17.658l-.353,1.766h17.658c3.649,0,21.543,1.531,18.364,17.423l-.941,4.709c-3.061,15.304-15.657,23.191-51.444,23.191h-26.958c-18.011,0-23.897-5.533-21.661-16.128ZM351.797,279.605c4.238,0,6.946-1.412,7.299-3.296l2.354-11.066c1.06-4.944.235-6.121-7.534-6.121h-4.474l-4.355,20.483h6.71ZM356.153,243.112c7.652,0,9.3-1.648,10.242-6.122l1.648-7.651c.353-1.884-1.53-3.414-6.004-3.414h-5.533l-3.649,17.188h3.296Z"/>
  <path d="M412.89,270.776l7.77-36.493c3.649-17.188,20.483-27.665,56.859-27.665s48.619,10.478,44.97,27.665l-7.77,36.493c-3.649,17.188-20.366,27.665-56.742,27.665-36.611,0-48.737-10.478-45.087-27.665ZM461.862,280.194c4.944,0,7.063-2.236,7.534-4.474l9.889-46.382c.471-2.237-.706-4.474-5.65-4.474-5.062,0-7.181,2.236-7.652,4.474l-9.889,46.382c-.471,2.237.588,4.474,5.768,4.474Z"/>
  <path d="M524.603,270.776l7.77-36.493c3.649-17.188,20.483-27.665,56.859-27.665s48.619,10.478,44.97,27.665l-7.77,36.493c-3.649,17.188-20.366,27.665-56.742,27.665-36.611,0-48.737-10.478-45.087-27.665ZM573.575,280.194c4.944,0,7.063-2.236,7.534-4.474l9.889-46.382c.471-2.237-.706-4.474-5.65-4.474-5.062,0-7.181,2.236-7.652,4.474l-9.889,46.382c-.471,2.237.588,4.474,5.768,4.474Z"/>
  <path d="M667.158,295.616c-3.179,1.53-8.241,2.942-14.48,2.942-6.003,0-10.242-1.295-13.067-2.942-6.004-3.532-5.297-8.123-4.355-12.361l13.185-61.333c.942-4.237,2.001-8.829,9.536-12.36,3.531-1.648,8.593-2.943,14.362-2.943,6.239,0,10.713,1.413,13.185,2.943,5.65,3.414,4.826,8.476,3.885,12.479l-4.356,20.013c5.062,0,9.653-1.767,15.186-12.126,5.297-9.771,8.005-16.834,18.365-20.719,4.944-1.884,9.889-2.472,15.186-2.472,9.182,0,20.837,3.296,20.837,11.301,0,9.535-7.534,7.652-16.481,18.247-9.888,11.89-21.778,13.538-35.552,13.538h-11.537l-.353,1.766h8.123c7.299,0,38.377-2.825,36.965,14.009l-.707,8.358c-.942,11.654,5.886,11.419,2.237,16.717-4.827,7.062-21.779,7.887-26.37,7.887-19.189,0-20.484-10.83-20.484-19.659v-11.419c0-4.709,0-6.71-9.417-6.71l-4.827,22.367c-.824,3.885-2.001,9.064-9.064,12.479Z"/>
</svg>